<?xml version="1.0" encoding="UTF-8" standalone="no"?>
<!DOCTYPE svg PUBLIC "-//W3C//DTD SVG 1.1//EN" "http://www.w3.org/Graphics/SVG/1.1/DTD/svg11.dtd">
<svg width="100%" height="100%" viewBox="0 0 8 14" version="1.1" xmlns="http://www.w3.org/2000/svg" xmlns:xlink="http://www.w3.org/1999/xlink" xml:space="preserve" xmlns:serif="http://www.serif.com/" style="fill-rule:evenodd;clip-rule:evenodd;stroke-linejoin:round;stroke-miterlimit:2;">
    <g transform="matrix(1,0,0,1,-6.43899,-0.919435)">
        <g transform="matrix(1.18445,0,0,0.592226,-0.0678444,0.927208)">
            <path d="M8.5,2.433L6.358,6.716C6.161,7.112 5.839,7.112 5.642,6.716C5.444,6.321 5.444,5.679 5.642,5.284L8.142,0.284C8.34,-0.112 8.66,-0.112 8.858,0.284L11.358,5.284C11.556,5.679 11.556,6.321 11.358,6.716C11.161,7.112 10.839,7.112 10.642,6.716L8.5,2.433Z" style="fill:rgb(65,65,65);"/>
        </g>
        <g transform="matrix(1.18445,0,0,-0.592226,-0.0678444,13.9191)">
            <path d="M8.5,2.433L10.642,6.716C10.839,7.112 11.161,7.112 11.358,6.716C11.556,6.321 11.556,5.679 11.358,5.284L8.858,0.284C8.66,-0.112 8.34,-0.112 8.142,0.284L5.642,5.284C5.444,5.679 5.444,6.321 5.642,6.716C5.839,7.112 6.161,7.112 6.358,6.716L8.5,2.433Z" style="fill:rgb(65,65,65);"/>
        </g>
    </g>
</svg>
