<svg xmlns="http://www.w3.org/2000/svg" width="96" height="94" viewBox="0 0 96 94"><defs><style>.a{fill:none;stroke:#e31836;stroke-linecap:round;stroke-linejoin:round;stroke-miterlimit:22.926;stroke-width:4px;}</style></defs><g transform="translate(2 2)"><path class="a" d="M1120.8,1192.076a38.58,38.58,0,1,1-58.468-4.5,38.959,38.959,0,0,1,50-3.968" transform="translate(-1051.025 -1163.387)"/><path class="a" d="M1106.383,1193.056a28.429,28.429,0,0,1-3.7,34.922,27.874,27.874,0,1,1-4.5-43.123" transform="translate(-1044.278 -1156.696)"/><path class="a" d="M1092.252,1194.354a17.49,17.49,0,0,1-3.439,19.577,17.4,17.4,0,0,1-24.6-24.6,17.489,17.489,0,0,1,19.578-3.439" transform="translate(-1037.82 -1149.673)"/><path class="a" d="M1076.245,1196.7a6.3,6.3,0,0,1-1.587,2.91,6.735,6.735,0,0,1-9.524-9.524,6.306,6.306,0,0,1,2.91-1.587" transform="translate(-1031.073 -1142.707)"/><line class="a" y1="48.15" x2="47.885" transform="translate(39.353 4.497)"/><path class="a" d="M1077.9,1186.312l9.524,3.175,11.376-11.376-9.789-2.91" transform="translate(-1006.8 -1163.56)"/><path class="a" d="M1079.175,1191.965l-3.175-9.789,11.376-11.376,3.175,9.788" transform="translate(-1009.927 -1170.8)"/></g></svg>