<?xml version="1.0" encoding="utf-8"?>
<!-- Generator: Adobe Illustrator 24.0.0, SVG Export Plug-In . SVG Version: 6.00 Build 0)  -->
<svg version="1.1" id="Layer_1" xmlns="http://www.w3.org/2000/svg" xmlns:xlink="http://www.w3.org/1999/xlink" x="0px" y="0px"
	 viewBox="0 0 400 400" style="enable-background:new 0 0 400 400;" xml:space="preserve">
<style type="text/css">
	.st0{fill:#0046BD;}
</style>
<g>
	<path d="M334.95,249.95c0-8.23-2.24-14.61-6.72-19.15c-4.48-4.54-10.38-6.81-17.69-6.81c-7.13,0-13.15,2.3-18.06,6.9
		c-2.85,2.67-4.84,5.79-6.04,9.34c-0.43-4.43-1.97-8.11-4.66-11.03c-3.2-3.47-7.36-5.21-12.48-5.21c-6.77,0-12.04,2.74-15.82,8.23
		c-2.93-5.49-7.89-8.23-14.9-8.23c-5.73,0-10.21,2.07-13.44,6.22v-4.85h-18.38v10.06c-1.06-1.61-2.32-3.11-3.84-4.48
		c-5.06-4.57-11.21-6.86-18.47-6.86c-7.31,0-13.5,2.29-18.56,6.86c-1.52,1.37-2.78,2.88-3.84,4.48v-45.85h-18.83v31.45h-20.66
		v-31.25h-18.92v81.94h18.92v-34.6h20.66v34.6h18.83v-9.97c1.06,1.61,2.32,3.11,3.84,4.48c5.06,4.57,11.24,6.86,18.56,6.86
		c7.25,0,13.41-2.29,18.47-6.86c1.52-1.37,2.78-2.88,3.84-4.48v9.97h18.38v-23.22c0-2.44,0.58-4.4,1.74-5.9
		c1.16-1.49,2.71-2.24,4.66-2.24c1.71,0,3.12,0.59,4.25,1.78c1.13,1.19,1.69,2.73,1.69,4.62v24.96h18.38v-23.22
		c0-2.44,0.61-4.4,1.83-5.9c1.22-1.49,2.8-2.24,4.75-2.24c1.65,0,3.02,0.59,4.11,1.78c1.1,1.19,1.65,2.73,1.65,4.62v24.96h18.38
		v-14.42c1.22,3.39,3.18,6.38,5.95,8.94c4.94,4.57,10.97,6.86,18.1,6.86c5.73,0,10.65-1.25,14.76-3.75
		c4.11-2.5,7.09-6.19,8.91-11.06l-16.27-3.2c-1.34,2.8-3.81,4.21-7.41,4.21c-3.96,0-6.49-2.1-7.59-6.31h31.91V249.95z
		 M190.45,255.12c-1.61,1.8-3.61,2.7-5.99,2.7c-2.44,0-4.46-0.9-6.08-2.7c-1.62-1.8-2.42-3.98-2.42-6.54c0-2.62,0.81-4.83,2.42-6.63
		c1.61-1.8,3.64-2.7,6.08-2.7c2.38,0,4.37,0.9,5.99,2.7s2.42,4.01,2.42,6.63C192.88,251.14,192.07,253.32,190.45,255.12z
		 M303.13,243.37c1.28-3.54,3.75-5.3,7.4-5.3c1.58,0,2.99,0.46,4.21,1.37c1.22,0.91,2.1,2.22,2.65,3.93H303.13z"/>
	<polygon points="175.62,213.51 182.41,192.53 189.2,213.51 191.02,213.51 198.52,189.68 196.64,189.68 190.06,210.74 183.3,189.68 
		181.56,189.68 174.8,210.74 168.18,189.68 166.3,189.68 173.84,213.51 	"/>
	<path d="M215.88,213.9c3.41,0,6.3-1.19,8.64-3.56c2.35-2.37,3.52-5.29,3.52-8.75c0-3.44-1.17-6.35-3.52-8.73
		c-2.35-2.38-5.23-3.57-8.64-3.57s-6.3,1.19-8.66,3.57c-2.36,2.38-3.54,5.29-3.54,8.73c0,3.46,1.17,6.38,3.52,8.75
		S212.44,213.9,215.88,213.9z M208.47,194.04c2-2.05,4.48-3.08,7.42-3.08c2.92,0,5.38,1.03,7.38,3.08s3.01,4.57,3.01,7.56
		c0,3.01-1,5.54-3.01,7.58s-4.46,3.06-7.38,3.06c-2.94,0-5.41-1.02-7.42-3.06s-3.01-4.56-3.01-7.58
		C205.46,198.61,206.46,196.09,208.47,194.04z"/>
	<path d="M237.65,202.56h5.23l9.82,10.95h2.35l-9.89-10.95h1.53c2.23,0,4.02-0.59,5.37-1.76c1.35-1.17,2.03-2.73,2.03-4.68
		c0-1.94-0.68-3.5-2.03-4.68c-1.35-1.17-3.14-1.76-5.37-1.76h-10.85v23.83h1.81V202.56z M237.65,191.32h9.03
		c1.68,0,3.04,0.44,4.07,1.32c1.03,0.88,1.55,2.04,1.55,3.49c0,1.45-0.52,2.61-1.55,3.5s-2.39,1.33-4.07,1.33h-9.03V191.32z"/>
	<polygon points="263.54,202.45 264.79,202.45 278.34,213.51 280.83,213.51 266.18,201.63 280.01,189.68 277.7,189.68 
		264.68,200.81 263.54,200.81 263.54,189.68 261.73,189.68 261.73,213.51 263.54,213.51 	"/>
	<polygon points="304.8,211.88 289.54,211.88 289.54,202.34 303.74,202.34 303.74,200.74 289.54,200.74 289.54,191.32 304.8,191.32 
		304.8,189.68 287.73,189.68 287.73,213.51 304.8,213.51 	"/>
	<path d="M314.41,202.56h5.23l9.82,10.95h2.35l-9.89-10.95h1.53c2.23,0,4.02-0.59,5.37-1.76c1.35-1.17,2.03-2.73,2.03-4.68
		c0-1.94-0.68-3.5-2.03-4.68c-1.35-1.17-3.14-1.76-5.37-1.76h-10.85v23.83h1.81V202.56z M314.41,191.32h9.03
		c1.68,0,3.04,0.44,4.07,1.32c1.03,0.88,1.55,2.04,1.55,3.49c0,1.45-0.52,2.61-1.55,3.5s-2.39,1.33-4.07,1.33h-9.03V191.32z"/>
</g>
<polygon class="st0" points="220.24,154.81 220.29,154.81 220.29,116.62 197.53,116.62 197.53,132.1 157.2,91.77 29.81,219.16 
	45.9,235.26 157.2,123.96 216.78,183.54 232.87,167.44 "/>
</svg>
