<?xml version="1.0" encoding="UTF-8" standalone="no"?>
<!DOCTYPE svg PUBLIC "-//W3C//DTD SVG 1.1//EN" "http://www.w3.org/Graphics/SVG/1.1/DTD/svg11.dtd">
<svg width="100%" height="100%" viewBox="0 0 2763 838" version="1.1" xmlns="http://www.w3.org/2000/svg" xmlns:xlink="http://www.w3.org/1999/xlink" xml:space="preserve" xmlns:serif="http://www.serif.com/" style="fill-rule:evenodd;clip-rule:evenodd;stroke-linejoin:round;stroke-miterlimit:2;">
    <g transform="matrix(1,0,0,1,-335.824,-386.278)">
        <g transform="matrix(4.16667,0,0,4.16667,0,0)">
            <g transform="matrix(-0.258818,0.965926,0.965926,0.258818,199.258,247.348)">
                <path d="M-133.751,-98.322L74.291,-98.322L75.445,-102.631L-132.597,-102.631L-133.751,-98.322Z" style="fill:rgb(16,22,62);"/>
            </g>
        </g>
        <g transform="matrix(4.16667,0,0,4.16667,0,0)">
            <g transform="matrix(1,0,0,1,198.629,225.947)">
                <path d="M0,14.246L-11.398,14.246L-5.699,-9.219L0,14.246ZM-14.247,-23.13C-14.903,-23.13 -15.434,-23.018 -15.825,-22.795C-16.216,-22.572 -16.524,-22.278 -16.747,-21.901C-16.957,-21.524 -17.138,-21.091 -17.264,-20.616L-31.929,33.856C-32.111,34.527 -32.097,35.127 -31.873,35.658C-31.636,36.188 -31.245,36.608 -30.7,36.915C-30.155,37.208 -29.513,37.362 -28.745,37.376L-19.442,37.376C-18.758,37.376 -18.199,37.264 -17.809,37.04C-17.403,36.817 -17.096,36.524 -16.886,36.147C-16.69,35.77 -16.524,35.336 -16.425,34.862L-14.833,28.325C-14.721,27.948 -14.582,27.655 -14.4,27.459C-14.219,27.25 -13.897,27.152 -13.409,27.152L1.76,27.152C2.291,27.166 2.682,27.305 2.919,27.571C3.156,27.836 3.324,28.144 3.436,28.493L5.028,34.862C5.224,35.658 5.531,36.287 5.978,36.72C6.411,37.152 7.109,37.376 8.045,37.376L19.191,37.376C19.945,37.362 20.559,37.208 21.048,36.887C21.523,36.566 21.844,36.147 21.998,35.602C22.166,35.058 22.152,34.443 21.956,33.772L7.374,-20.616C7.18,-21.342 6.83,-21.942 6.327,-22.404C5.824,-22.879 5.056,-23.116 4.022,-23.13L-14.247,-23.13Z" style="fill:rgb(18,20,63);fill-rule:nonzero;"/>
            </g>
        </g>
        <g transform="matrix(4.16667,0,0,4.16667,0,0)">
            <g transform="matrix(1,0,0,1,248.806,250.417)">
                <path d="M0,-34.694C1.816,-34.722 3.227,-34.345 4.246,-33.563C5.252,-32.795 5.769,-31.496 5.783,-29.666L5.783,-29.247C5.783,-27.529 5.293,-26.243 4.33,-25.406C3.366,-24.554 1.983,-24.134 0.168,-24.134L-7.375,-24.134L-7.375,-33.186C-7.375,-33.661 -7.235,-34.024 -6.969,-34.289C-6.704,-34.554 -6.327,-34.694 -5.866,-34.694L0,-34.694ZM0.168,-11.229C1.983,-11.243 3.366,-10.852 4.33,-10.07C5.293,-9.274 5.783,-7.989 5.783,-6.201L5.783,-5.028C5.769,-3.24 5.252,-1.955 4.246,-1.159C3.227,-0.376 1.816,0.014 0,0L-5.95,0C-6.341,0 -6.676,-0.139 -6.941,-0.404C-7.221,-0.67 -7.36,-1.047 -7.375,-1.508L-7.375,-11.229L0.168,-11.229ZM-20.699,-47.6C-21.831,-47.6 -22.669,-47.32 -23.227,-46.776C-23.772,-46.217 -24.051,-45.379 -24.051,-44.247L-24.051,9.554C-24.051,10.685 -23.772,11.523 -23.227,12.082C-22.669,12.627 -21.831,12.906 -20.699,12.906L11.23,12.906C13.506,12.892 15.476,12.431 17.166,11.51C18.842,10.588 20.141,9.289 21.063,7.627C21.985,5.964 22.445,4.009 22.46,1.761L22.46,-3.352C22.445,-5.698 22.068,-7.807 21.328,-9.679C20.588,-11.551 19.54,-13.156 18.199,-14.512C16.858,-15.866 15.294,-16.956 13.493,-17.766C15.294,-18.548 16.858,-19.624 18.199,-20.979C19.54,-22.333 20.588,-23.953 21.328,-25.839C22.068,-27.711 22.445,-29.833 22.46,-32.18L22.46,-36.287C22.445,-38.563 21.985,-40.547 21.063,-42.236C20.141,-43.926 18.842,-45.239 17.166,-46.175C15.476,-47.111 13.506,-47.586 11.23,-47.6L-20.699,-47.6Z" style="fill:rgb(18,20,63);fill-rule:nonzero;"/>
            </g>
        </g>
        <g transform="matrix(4.16667,0,0,4.16667,0,0)">
            <g transform="matrix(1,0,0,1,301.582,223.517)">
                <path d="M0,19.106C1.844,19.609 2.766,21.034 2.766,23.38L2.766,23.548C2.766,24.428 2.626,25.127 2.333,25.615C2.039,26.104 1.578,26.439 0.964,26.621C0.349,26.816 -0.447,26.914 -1.425,26.9L-22.208,26.9C-23.339,26.9 -24.178,27.179 -24.736,27.724C-25.281,28.282 -25.56,29.121 -25.56,30.252L-25.56,36.453C-25.56,37.585 -25.281,38.423 -24.736,38.981C-24.178,39.526 -23.339,39.806 -22.208,39.806L5.279,39.806C8.115,39.778 10.601,39.163 12.71,37.948C14.833,36.733 16.481,35.043 17.654,32.892C18.828,30.727 19.428,28.241 19.441,25.392L19.441,17.012C19.428,14.875 19.052,12.975 18.311,11.285C17.57,9.594 16.537,8.197 15.21,7.067C13.883,5.935 12.333,5.153 10.56,4.692L-7.542,0C-8.506,-0.252 -9.219,-0.727 -9.693,-1.439C-10.155,-2.137 -10.392,-3.06 -10.392,-4.191L-10.392,-4.442C-10.392,-5.337 -10.224,-6.021 -9.889,-6.51C-9.554,-6.998 -9.064,-7.334 -8.408,-7.529C-7.752,-7.711 -6.928,-7.809 -5.95,-7.794L13.073,-7.794C14.205,-7.794 15.043,-8.074 15.602,-8.619C16.146,-9.178 16.426,-10.015 16.426,-11.147L16.426,-17.348C16.426,-18.479 16.146,-19.318 15.602,-19.876C15.043,-20.421 14.205,-20.7 13.073,-20.7L-12.738,-20.7C-14.861,-20.686 -16.803,-20.337 -18.549,-19.624C-20.295,-18.926 -21.803,-17.935 -23.074,-16.664C-24.345,-15.378 -25.323,-13.87 -26.021,-12.152C-26.706,-10.42 -27.055,-8.521 -27.068,-6.454L-27.068,2.094C-27.068,3.505 -26.845,4.874 -26.426,6.2C-25.994,7.528 -25.392,8.742 -24.597,9.86C-23.801,10.978 -22.865,11.927 -21.761,12.71C-20.672,13.506 -19.443,14.064 -18.102,14.414L0,19.106Z" style="fill:rgb(18,20,63);fill-rule:nonzero;"/>
            </g>
        </g>
        <g transform="matrix(4.16667,0,0,4.16667,0,0)">
            <g transform="matrix(1,0,0,1,139.907,261.469)">
                <path d="M0,-55.302C0,-56.046 -0.119,-56.661 -0.356,-57.155L-15.924,0.949L-15.853,1.029C-15.294,1.573 -14.456,1.853 -13.325,1.853L23.465,1.853C24.597,1.853 25.435,1.573 25.993,1.029C26.539,0.47 26.817,-0.368 26.817,-1.499L26.817,-7.701C26.817,-8.833 26.539,-9.671 25.993,-10.23C25.435,-10.774 24.597,-11.053 23.465,-11.053L1.592,-11.053C1.117,-11.067 0.74,-11.207 0.447,-11.5C0.153,-11.794 0.014,-12.171 0,-12.646L0,-55.302Z" style="fill:rgb(18,20,63);fill-rule:nonzero;"/>
            </g>
        </g>
        <g transform="matrix(4.16667,0,0,4.16667,0,0)">
            <g transform="matrix(1,0,0,1,208.565,167.099)">
                <path d="M0,-31.51C0,-32.054 0.126,-32.46 0.392,-32.711C0.643,-32.977 1.048,-33.102 1.592,-33.102L23.801,-33.102C24.765,-33.116 25.519,-33.409 26.035,-33.954C26.553,-34.499 26.818,-35.225 26.818,-36.119L26.818,-42.99C26.804,-43.885 26.525,-44.611 25.966,-45.156C25.421,-45.715 24.694,-45.994 23.801,-46.008L-13.659,-46.008C-14.554,-45.994 -15.28,-45.715 -15.824,-45.156C-16.383,-44.611 -16.663,-43.885 -16.676,-42.99L-16.676,11.481C-16.663,12.375 -16.383,13.101 -15.824,13.646C-15.28,14.205 -14.554,14.485 -13.659,14.498L23.801,14.498C24.694,14.485 25.421,14.205 25.966,13.66C26.525,13.115 26.804,12.417 26.818,11.565L26.818,4.61C26.804,3.715 26.525,2.989 25.966,2.445C25.421,1.886 24.694,1.606 23.801,1.593L1.509,1.593C1.048,1.593 0.671,1.453 0.406,1.188C0.14,0.922 0,0.545 0,0.084L0,-9.637L18.688,-9.637C19.904,-9.637 20.812,-9.93 21.399,-10.504C22,-11.09 22.292,-11.942 22.292,-13.073L22.292,-19.023C22.292,-21.369 21.119,-22.542 18.772,-22.542L0,-22.542L0,-31.51Z" style="fill:rgb(18,20,63);fill-rule:nonzero;"/>
            </g>
        </g>
        <g transform="matrix(4.16667,0,0,4.16667,0,0)">
            <g transform="matrix(1,0,0,1,266.417,168.693)">
                <path d="M0,-34.696C1.201,-34.71 2.235,-34.556 3.087,-34.235C3.925,-33.914 4.582,-33.383 5.029,-32.643C5.475,-31.916 5.699,-30.925 5.699,-29.668L5.699,-29.333C5.685,-27.684 5.168,-26.413 4.163,-25.505C3.144,-24.612 1.732,-24.151 -0.083,-24.136L-7.458,-24.136L-7.458,-33.187C-7.444,-33.579 -7.276,-33.927 -6.969,-34.221C-6.648,-34.528 -6.256,-34.682 -5.782,-34.696L0,-34.696ZM-20.782,-47.601C-21.914,-47.601 -22.752,-47.322 -23.311,-46.777C-23.855,-46.219 -24.135,-45.381 -24.135,-44.249L-24.135,9.552C-24.135,10.684 -23.855,11.521 -23.311,12.08C-22.752,12.625 -21.914,12.905 -20.782,12.905L-10.81,12.905C-9.679,12.905 -8.841,12.625 -8.283,12.08C-7.737,11.521 -7.458,10.684 -7.458,9.552L-7.458,-11.231L-4.19,-11.231C-3.645,-11.217 -3.086,-11.077 -2.528,-10.798C-1.955,-10.505 -1.452,-10.156 -0.992,-9.722C-0.53,-9.289 -0.209,-8.842 0,-8.381L6.537,10.642C6.817,11.326 7.179,11.871 7.626,12.276C8.074,12.681 8.688,12.891 9.47,12.905L21.119,12.905C21.832,12.891 22.445,12.709 22.962,12.36C23.479,11.997 23.842,11.536 24.052,10.963C24.262,10.39 24.262,9.79 24.052,9.134L17.515,-8.13C17.208,-8.842 16.859,-9.554 16.467,-10.267C16.062,-10.979 15.63,-11.636 15.169,-12.265C14.694,-12.879 14.191,-13.41 13.661,-13.828C15.267,-14.597 16.733,-15.616 18.046,-16.86C19.359,-18.103 20.393,-19.486 21.175,-20.994C21.957,-22.516 22.362,-24.067 22.376,-25.645L22.376,-33.271C22.362,-36.092 21.748,-38.565 20.546,-40.716C19.331,-42.852 17.655,-44.543 15.504,-45.744C13.339,-46.96 10.839,-47.588 7.962,-47.601L-20.782,-47.601Z" style="fill:rgb(18,20,63);fill-rule:nonzero;"/>
            </g>
        </g>
        <g transform="matrix(4.16667,0,0,4.16667,0,0)">
            <g transform="matrix(1,0,0,1,315.051,167.183)">
                <path d="M0,-31.678C0,-32.153 0.14,-32.517 0.406,-32.782C0.671,-33.047 1.048,-33.187 1.509,-33.187L23.801,-33.187C24.765,-33.214 25.519,-33.508 26.035,-34.067C26.553,-34.639 26.817,-35.351 26.817,-36.203L26.817,-43.075C26.803,-43.648 26.663,-44.151 26.385,-44.598C26.105,-45.059 25.742,-45.422 25.295,-45.687C24.834,-45.952 24.345,-46.092 23.801,-46.092L-13.659,-46.092C-14.19,-46.092 -14.692,-45.952 -15.154,-45.687C-15.601,-45.422 -15.964,-45.059 -16.243,-44.598C-16.523,-44.151 -16.663,-43.648 -16.677,-43.075L-16.677,11.397C-16.663,11.956 -16.523,12.472 -16.243,12.92C-15.964,13.381 -15.601,13.729 -15.154,14.009C-14.692,14.274 -14.19,14.4 -13.659,14.414L-3.017,14.414C-2.472,14.4 -1.982,14.274 -1.522,14.009C-1.074,13.729 -0.712,13.381 -0.433,12.92C-0.153,12.472 -0.014,11.956 0,11.397L0,-9.721L18.688,-9.721C19.903,-9.721 20.812,-10.015 21.398,-10.588C21.999,-11.174 22.292,-12.026 22.292,-13.157L22.292,-19.024C22.292,-20.239 21.999,-21.146 21.412,-21.734C20.825,-22.334 19.946,-22.627 18.771,-22.627L0,-22.627L0,-31.678Z" style="fill:rgb(18,20,63);fill-rule:nonzero;"/>
            </g>
        </g>
        <g transform="matrix(4.16667,0,0,4.16667,0,0)">
            <g transform="matrix(1,0,0,1,380.78,139.863)">
                <path d="M0,22.962C-0.015,24.778 -0.517,26.216 -1.509,27.25C-2.5,28.284 -3.925,28.814 -5.782,28.828L-10.392,28.828C-12.208,28.814 -13.618,28.284 -14.638,27.25C-15.644,26.216 -16.161,24.778 -16.175,22.962L-16.175,0C-16.161,-1.9 -15.644,-3.352 -14.638,-4.344C-13.618,-5.35 -12.208,-5.867 -10.392,-5.867L-5.782,-5.867C-3.967,-5.867 -2.557,-5.35 -1.536,-4.344C-0.531,-3.352 -0.015,-1.9 0,0L0,22.962ZM16.677,-4.526C16.663,-6.593 16.313,-8.492 15.629,-10.224C14.944,-11.942 13.953,-13.45 12.682,-14.735C11.41,-16.007 9.902,-16.998 8.156,-17.696C6.411,-18.409 4.47,-18.759 2.346,-18.772L-18.521,-18.772C-20.644,-18.759 -22.585,-18.409 -24.331,-17.696C-26.077,-16.998 -27.586,-16.007 -28.856,-14.735C-30.128,-13.45 -31.105,-11.942 -31.804,-10.224C-32.488,-8.492 -32.837,-6.593 -32.851,-4.526L-32.851,27.319C-32.837,30.141 -32.236,32.627 -31.077,34.778C-29.904,36.943 -28.256,38.633 -26.133,39.862C-24.01,41.091 -21.496,41.706 -18.604,41.734L2.43,41.734C5.321,41.706 7.835,41.091 9.958,39.862C12.081,38.633 13.729,36.943 14.902,34.778C16.076,32.627 16.663,30.141 16.677,27.319L16.677,-4.526Z" style="fill:rgb(18,20,63);fill-rule:nonzero;"/>
            </g>
        </g>
        <g transform="matrix(4.16667,0,0,4.16667,0,0)">
            <g transform="matrix(1,0,0,1,430.168,168.693)">
                <path d="M0,-34.696C1.201,-34.71 2.235,-34.556 3.088,-34.235C3.926,-33.914 4.582,-33.383 5.029,-32.643C5.476,-31.916 5.699,-30.925 5.699,-29.668L5.699,-29.333C5.686,-27.684 5.169,-26.413 4.162,-25.505C3.144,-24.612 1.732,-24.151 -0.083,-24.136L-7.458,-24.136L-7.458,-33.187C-7.443,-33.579 -7.276,-33.927 -6.969,-34.221C-6.647,-34.528 -6.257,-34.682 -5.782,-34.696L0,-34.696ZM-20.782,-47.601C-21.914,-47.601 -22.752,-47.322 -23.311,-46.777C-23.855,-46.219 -24.135,-45.381 -24.135,-44.249L-24.135,9.552C-24.135,10.684 -23.855,11.521 -23.311,12.08C-22.752,12.625 -21.914,12.905 -20.782,12.905L-10.81,12.905C-9.679,12.905 -8.841,12.625 -8.282,12.08C-7.737,11.521 -7.458,10.684 -7.458,9.552L-7.458,-11.231L-4.189,-11.231C-3.645,-11.217 -3.086,-11.077 -2.527,-10.798C-1.954,-10.505 -1.452,-10.156 -0.991,-9.722C-0.53,-9.289 -0.209,-8.842 0,-8.381L6.538,10.642C6.817,11.326 7.18,11.871 7.627,12.276C8.074,12.681 8.688,12.891 9.471,12.905L21.119,12.905C21.832,12.891 22.446,12.709 22.963,12.36C23.479,11.997 23.843,11.536 24.053,10.963C24.262,10.39 24.262,9.79 24.053,9.134L17.516,-8.13C17.208,-8.842 16.859,-9.554 16.468,-10.267C16.062,-10.979 15.63,-11.636 15.169,-12.265C14.694,-12.879 14.191,-13.41 13.661,-13.828C15.267,-14.597 16.733,-15.616 18.047,-16.86C19.359,-18.103 20.393,-19.486 21.176,-20.994C21.957,-22.516 22.362,-24.067 22.377,-25.645L22.377,-33.271C22.362,-36.092 21.748,-38.565 20.547,-40.716C19.331,-42.852 17.655,-44.543 15.505,-45.744C13.34,-46.96 10.84,-47.588 7.962,-47.601L-20.782,-47.601Z" style="fill:rgb(18,20,63);fill-rule:nonzero;"/>
            </g>
        </g>
        <g transform="matrix(4.16667,0,0,4.16667,0,0)">
            <g transform="matrix(1,0,0,1,486.26,178.833)">
                <path d="M0,-54.976C-0.125,-55.507 -0.308,-55.981 -0.53,-56.4C-0.754,-56.82 -1.075,-57.141 -1.509,-57.378C-1.941,-57.616 -2.528,-57.741 -3.269,-57.741L-20.699,-57.741C-21.83,-57.741 -22.669,-57.462 -23.228,-56.917C-23.771,-56.359 -24.051,-55.52 -24.051,-54.389L-24.051,-0.588C-24.051,0.544 -23.771,1.381 -23.228,1.941C-22.669,2.485 -21.83,2.765 -20.699,2.765L-11.983,2.765C-10.853,2.765 -10.014,2.485 -9.456,1.941C-8.911,1.381 -8.632,0.544 -8.632,-0.588L-8.632,-38.215L2.012,-0.001C2.137,0.53 2.319,1.004 2.542,1.424C2.766,1.843 3.088,2.164 3.521,2.401C3.953,2.639 4.54,2.765 5.28,2.765L13.744,2.765C14.498,2.765 15.099,2.639 15.546,2.401C16.007,2.164 16.355,1.843 16.607,1.424C16.858,1.004 17.055,0.53 17.18,-0.001L27.655,-38.215L27.655,-0.588C27.655,0.544 27.935,1.381 28.479,1.941C29.039,2.485 29.876,2.765 31.008,2.765L39.724,2.765C40.854,2.765 41.692,2.485 42.251,1.941C42.796,1.381 43.075,0.544 43.075,-0.588L43.075,-54.389C43.075,-55.52 42.796,-56.359 42.251,-56.917C41.692,-57.462 40.854,-57.741 39.724,-57.741L22.124,-57.741C21.44,-57.741 20.881,-57.616 20.463,-57.378C20.044,-57.141 19.723,-56.82 19.484,-56.4C19.261,-55.981 19.079,-55.507 18.939,-54.976L9.554,-19.694L0,-54.976Z" style="fill:rgb(18,20,63);fill-rule:nonzero;"/>
            </g>
        </g>
        <g transform="matrix(4.16667,0,0,4.16667,0,0)">
            <g transform="matrix(1,0,0,1,568.164,144.221)">
                <path d="M0,14.246L-11.397,14.246L-5.699,-9.219L0,14.246ZM-14.247,-23.13C-14.903,-23.13 -15.434,-23.018 -15.825,-22.795C-16.216,-22.572 -16.523,-22.278 -16.747,-21.901C-16.957,-21.525 -17.138,-21.091 -17.264,-20.616L-31.929,33.856C-32.111,34.527 -32.097,35.127 -31.873,35.658C-31.636,36.188 -31.244,36.607 -30.7,36.915C-30.155,37.208 -29.514,37.362 -28.745,37.376L-19.442,37.376C-18.758,37.376 -18.199,37.264 -17.809,37.04C-17.403,36.817 -17.097,36.524 -16.887,36.147C-16.69,35.77 -16.523,35.336 -16.426,34.862L-14.833,28.325C-14.722,27.948 -14.581,27.655 -14.4,27.459C-14.219,27.25 -13.897,27.152 -13.408,27.152L1.76,27.152C2.291,27.166 2.682,27.305 2.919,27.571C3.156,27.836 3.324,28.143 3.436,28.493L5.028,34.862C5.224,35.658 5.531,36.287 5.978,36.72C6.411,37.152 7.109,37.376 8.045,37.376L19.19,37.376C19.945,37.362 20.56,37.208 21.048,36.887C21.523,36.566 21.844,36.147 21.998,35.602C22.166,35.058 22.151,34.443 21.956,33.772L7.374,-20.616C7.18,-21.342 6.83,-21.942 6.327,-22.404C5.824,-22.879 5.056,-23.117 4.022,-23.13L-14.247,-23.13Z" style="fill:rgb(18,20,63);fill-rule:nonzero;"/>
            </g>
        </g>
        <g transform="matrix(4.16667,0,0,4.16667,0,0)">
            <g transform="matrix(1,0,0,1,619.897,179.083)">
                <path d="M0,-55.478C-0.209,-56.176 -0.642,-56.763 -1.284,-57.238C-1.928,-57.727 -2.765,-57.978 -3.771,-57.992L-19.441,-57.992C-20.573,-57.992 -21.412,-57.712 -21.97,-57.167C-22.515,-56.609 -22.794,-55.771 -22.794,-54.64L-22.794,-0.838C-22.794,0.293 -22.515,1.131 -21.97,1.69C-21.412,2.234 -20.573,2.514 -19.441,2.514L-10.392,2.514C-9.26,2.514 -8.422,2.234 -7.863,1.69C-7.318,1.131 -7.039,0.293 -7.039,-0.838L-7.039,-38.466L5.615,0C5.839,0.685 6.271,1.271 6.9,1.76C7.515,2.234 8.241,2.486 9.052,2.514L25.142,2.514C26.272,2.514 27.111,2.234 27.67,1.69C28.215,1.131 28.493,0.293 28.493,-0.838L28.493,-54.64C28.493,-55.771 28.215,-56.609 27.67,-57.167C27.111,-57.712 26.272,-57.992 25.142,-57.992L16.091,-57.992C14.959,-57.992 14.121,-57.712 13.563,-57.167C13.018,-56.609 12.738,-55.771 12.738,-54.64L12.738,-16.929L0,-55.478Z" style="fill:rgb(18,20,63);fill-rule:nonzero;"/>
            </g>
        </g>
        <g transform="matrix(4.16667,0,0,4.16667,0,0)">
            <g transform="matrix(1,0,0,1,656.968,135.507)">
                <path d="M0,31.676C0.014,34.498 0.613,36.984 1.773,39.135C2.946,41.3 4.595,42.989 6.717,44.218C8.841,45.447 11.354,46.063 14.246,46.091L40.644,46.091C41.859,46.091 42.767,45.798 43.354,45.21C43.954,44.624 44.248,43.744 44.248,42.571L44.248,36.621C44.248,35.489 43.954,34.637 43.367,34.051C42.78,33.478 41.901,33.185 40.728,33.185L22.459,33.185C20.643,33.171 19.232,32.64 18.213,31.607C17.207,30.573 16.689,29.134 16.677,27.319L16.677,4.357C16.689,2.457 17.207,1.004 18.213,0.012C19.232,-0.993 20.643,-1.51 22.459,-1.51L40.644,-1.51C41.859,-1.51 42.767,-1.803 43.354,-2.39C43.954,-2.977 44.248,-3.856 44.248,-5.03L44.248,-10.896C44.248,-13.242 43.074,-14.415 40.728,-14.415L14.33,-14.415C12.207,-14.402 10.266,-14.052 8.52,-13.34C6.773,-12.642 5.265,-11.65 3.994,-10.379C2.723,-9.094 1.745,-7.585 1.047,-5.867C0.362,-4.136 0.014,-2.237 0,-0.169L0,31.676Z" style="fill:rgb(18,20,63);fill-rule:nonzero;"/>
            </g>
        </g>
        <g transform="matrix(4.16667,0,0,4.16667,0,0)">
            <g transform="matrix(1,0,0,1,145.638,121.089)">
                <path d="M0,60.507L6.168,60.507C7.298,60.507 8.137,60.227 8.696,59.683C9.241,59.124 9.52,58.286 9.52,57.154L9.52,37.125L25.107,37.125C27.999,37.097 30.513,36.483 32.636,35.253C34.759,34.024 36.407,32.335 37.581,30.169C38.753,28.019 39.34,25.532 39.355,22.711L39.355,14.247C39.34,12.179 38.991,10.28 38.306,8.548C37.623,6.83 36.631,5.321 35.359,4.036C34.088,2.765 32.581,1.774 30.834,1.075C29.088,0.363 27.147,0.014 25.023,0L16.212,0L12.754,12.905L16.895,12.905C18.096,12.891 19.129,13.045 19.995,13.367C20.862,13.688 21.518,14.219 21.979,14.959C22.439,15.686 22.677,16.676 22.677,17.934L22.677,18.689C22.664,20.49 22.174,21.873 21.183,22.808C20.191,23.744 18.794,24.219 16.979,24.219L9.723,24.219L0,60.507Z" style="fill:rgb(18,20,63);fill-rule:nonzero;"/>
            </g>
        </g>
        <g transform="matrix(4.16667,0,0,4.16667,0,0)">
            <g transform="matrix(1,0,0,1,724.792,167.099)">
                <path d="M0,-31.511C0,-32.055 0.126,-32.461 0.392,-32.713C0.644,-32.978 1.049,-33.104 1.593,-33.104L15.317,-33.104L18.775,-46.009L-13.659,-46.009C-14.554,-45.995 -15.279,-45.716 -15.824,-45.157C-16.383,-44.613 -16.663,-43.886 -16.676,-42.993L-16.676,11.48C-16.663,12.374 -16.383,13.1 -15.824,13.646C-15.279,14.204 -14.554,14.483 -13.659,14.498L2.563,14.498L6.021,1.591L1.509,1.591C1.049,1.591 0.671,1.452 0.406,1.186C0.14,0.921 0,0.545 0,0.083L0,-9.638L9.03,-9.638L12.488,-22.544L0,-22.544L0,-31.511Z" style="fill:rgb(18,20,63);"/>
            </g>
        </g>
        <g transform="matrix(4.16667,0,0,4.16667,0,0)">
            <g transform="matrix(1,0,0,1,436.188,226.704)">
                <path d="M0,35.738L0,29.587L-5.385,21L-3.46,21L0.896,27.911L5.285,21L7.29,21L1.689,29.587L1.689,35.738L0,35.738ZM-12.449,25.598L-12.449,25.028C-12.449,24.517 -12.476,24.132 -12.527,23.869C-12.619,23.41 -12.793,23.073 -13.049,22.857C-13.304,22.641 -13.608,22.5 -13.962,22.435C-14.316,22.369 -14.774,22.337 -15.338,22.337L-15.672,22.337C-16.812,22.337 -17.617,22.369 -18.089,22.435C-18.966,22.552 -19.608,22.814 -20.015,23.221C-20.211,23.456 -20.368,23.738 -20.485,24.065C-20.604,24.393 -20.663,24.832 -20.663,25.382L-20.663,30.216C-20.663,31.29 -20.595,32.087 -20.457,32.604C-20.318,33.121 -20.104,33.511 -19.815,33.773C-19.536,34.061 -19.189,34.244 -18.767,34.323C-18.74,34.323 -18.334,34.362 -17.545,34.441L-16.536,34.441C-16.274,34.441 -15.904,34.427 -15.433,34.401C-14.957,34.375 -14.62,34.362 -14.424,34.362C-14.109,34.323 -13.857,34.283 -13.675,34.244C-13.265,34.153 -12.95,33.995 -12.728,33.773C-12.384,33.459 -12.213,33.013 -12.213,32.436L-12.213,30.746L-10.563,30.746L-10.563,31.592C-10.563,32.351 -10.603,32.921 -10.681,33.301C-10.812,33.93 -11.074,34.448 -11.467,34.853C-11.86,35.259 -12.436,35.541 -13.195,35.698C-13.72,35.803 -14.395,35.856 -15.22,35.856L-17.931,35.856C-18.613,35.856 -19.183,35.783 -19.642,35.639C-20.1,35.495 -20.598,35.194 -21.135,34.736C-21.462,34.448 -21.74,33.988 -21.97,33.36C-22.199,32.731 -22.313,32.05 -22.313,31.317L-22.313,25.52C-22.313,24.105 -22.019,23.044 -21.43,22.337C-20.919,21.721 -20.152,21.307 -19.131,21.098C-18.448,20.954 -17.525,20.883 -16.359,20.883L-13.903,20.883C-13.065,20.961 -12.403,21.206 -11.918,21.616C-11.565,21.907 -11.283,22.33 -11.074,22.883C-10.864,23.437 -10.759,24.216 -10.759,25.221L-10.759,25.598L-12.449,25.598ZM-42.17,21L-39.4,21L-31.146,34.48L-31.107,21L-29.417,21L-29.417,35.738L-32.148,35.738L-40.441,22.379L-40.48,35.738L-42.17,35.738L-42.17,21ZM-58.568,35.738L-58.568,21L-49.097,21L-49.097,22.454L-56.917,22.454L-56.917,27.485L-49.431,27.485L-49.431,28.86L-56.917,28.86L-56.917,34.283L-49.097,34.283L-49.097,35.738L-58.568,35.738ZM-64.905,31.631C-64.905,32.469 -64.994,33.16 -65.171,33.704C-65.348,34.248 -65.639,34.683 -66.045,35.011C-66.543,35.39 -67.136,35.627 -67.823,35.718C-68.511,35.81 -69.497,35.856 -70.78,35.856L-71.959,35.856C-72.93,35.856 -73.656,35.803 -74.142,35.698C-74.849,35.541 -75.412,35.257 -75.831,34.843C-76.25,34.431 -76.561,33.901 -76.765,33.252C-76.968,32.604 -77.068,31.769 -77.068,30.746L-77.068,25.913C-77.068,24.157 -76.683,22.854 -75.906,22.002C-75.195,21.256 -74.144,20.883 -72.752,20.883L-68.75,20.883C-67.528,20.883 -66.582,21.163 -65.911,21.727C-65.239,22.29 -64.905,23.109 -64.905,24.183L-64.905,25.303L-66.556,25.303L-66.556,24.675C-66.556,24.23 -66.582,23.872 -66.634,23.604C-66.687,23.335 -66.799,23.122 -66.972,22.965C-67.194,22.716 -67.525,22.549 -67.968,22.464C-68.409,22.379 -68.917,22.337 -69.497,22.337L-71.845,22.337C-72.596,22.337 -73.161,22.369 -73.542,22.435C-73.924,22.5 -74.281,22.663 -74.609,22.926C-74.871,23.135 -75.067,23.472 -75.192,23.937C-75.316,24.403 -75.379,25.048 -75.379,25.873L-75.379,31.218C-75.379,31.886 -75.307,32.427 -75.162,32.84C-75.019,33.252 -74.789,33.572 -74.475,33.802C-74.16,34.031 -73.761,34.196 -73.276,34.294C-72.792,34.392 -72.287,34.441 -71.763,34.441L-70.015,34.441C-69.347,34.441 -68.776,34.399 -68.305,34.313C-67.833,34.228 -67.453,34.074 -67.165,33.851C-66.942,33.694 -66.785,33.439 -66.693,33.085C-66.603,32.731 -66.556,32.273 -66.556,31.709L-66.556,29.862L-71.271,29.862L-71.271,28.369L-64.905,28.369L-64.905,31.631ZM-90.794,21L-88.455,21L-82.914,35.738L-84.637,35.734L-85.846,32.633L-93.29,32.633L-94.439,35.734L-96.159,35.738L-90.794,21ZM-92.818,31.238L-86.308,31.238L-89.596,22.379L-92.818,31.238ZM-14.208,-0.118L-11.438,-0.118L-3.184,13.362L-3.145,-0.118L-1.454,-0.118L-1.454,14.619L-4.187,14.619L-12.479,1.26L-12.518,14.619L-14.208,14.619L-14.208,-0.118ZM-30.605,14.619L-30.605,-0.118L-21.134,-0.118L-21.134,1.336L-28.955,1.336L-28.955,6.366L-21.468,6.366L-21.468,7.742L-28.955,7.742L-28.955,13.165L-21.134,13.165L-21.134,14.619L-30.605,14.619ZM-41.403,14.619L-43.781,14.619L-49.047,-0.118L-47.278,-0.118L-42.648,13.365L-42.563,13.362L-37.944,-0.118L-36.196,-0.118L-41.403,14.619ZM-56.898,-0.118L-55.247,-0.118L-55.247,14.619L-56.898,14.619L-56.898,-0.118ZM-68.56,-0.118C-67.813,-0.118 -67.139,-0.033 -66.536,0.138C-65.933,0.308 -65.455,0.582 -65.102,0.963C-64.787,1.303 -64.564,1.752 -64.433,2.308C-64.303,2.866 -64.236,3.517 -64.236,4.264C-64.236,4.893 -64.263,5.371 -64.315,5.698C-64.406,6.235 -64.571,6.674 -64.807,7.015C-65.226,7.565 -65.887,7.9 -66.791,8.017C-66.084,8.109 -65.512,8.397 -65.071,8.882C-64.633,9.366 -64.413,9.963 -64.413,10.67L-64.413,14.619L-66.104,14.619L-66.104,11.397C-66.104,10.939 -66.143,10.542 -66.222,10.209C-66.3,9.874 -66.441,9.592 -66.644,9.363C-66.847,9.134 -67.119,8.973 -67.459,8.882C-67.8,8.79 -68.206,8.744 -68.678,8.744L-73.983,8.744L-73.983,14.619L-75.634,14.619L-75.634,-0.118L-68.56,-0.118ZM-68.533,1.336L-73.983,1.336L-73.983,7.251L-68.729,7.251C-68.164,7.251 -67.712,7.208 -67.368,7.123C-67.027,7.038 -66.723,6.851 -66.461,6.563C-66.25,6.327 -66.104,6.026 -66.025,5.659C-65.946,5.292 -65.906,4.886 -65.906,4.441L-65.906,3.949C-65.906,3.478 -65.93,3.091 -65.977,2.791C-66.021,2.489 -66.14,2.227 -66.333,2.004C-66.522,1.782 -66.813,1.614 -67.21,1.503C-67.606,1.392 -68.045,1.336 -68.533,1.336M-87.414,14.619L-95.038,14.619L-95.038,-0.118L-87.827,-0.118C-86.7,-0.118 -85.776,0.078 -85.057,0.471C-84.414,0.812 -83.896,1.329 -83.504,2.024C-83.032,2.915 -82.797,4.119 -82.797,5.64L-82.797,8.784C-82.797,9.963 -82.934,10.951 -83.209,11.751C-83.576,12.812 -84.185,13.578 -85.037,14.05C-85.338,14.246 -85.691,14.39 -86.098,14.482C-86.504,14.574 -86.942,14.619 -87.414,14.619M-87.984,13.165C-87.303,13.165 -86.736,13.09 -86.284,12.939C-85.832,12.789 -85.462,12.51 -85.174,12.104C-84.886,11.698 -84.683,11.109 -84.565,10.336C-84.486,9.799 -84.447,9.144 -84.447,8.37L-84.447,5.109C-84.447,4.087 -84.649,3.256 -85.057,2.613C-85.594,1.761 -86.418,1.336 -87.532,1.336L-93.368,1.336L-93.368,13.165L-87.984,13.165Z" style="fill:rgb(18,20,63);fill-rule:nonzero;"/>
            </g>
        </g>
        <g transform="matrix(4.16667,0,0,4.16667,0,0)">
            <g transform="matrix(1,0,0,1,413.462,220.322)">
                <path d="M0,-14.973C1.1,-14.973 1.984,-14.914 2.652,-14.796C3.32,-14.678 3.838,-14.472 4.205,-14.178C4.571,-13.883 4.84,-13.483 5.011,-12.978C5.181,-12.474 5.266,-11.895 5.266,-11.239L5.266,-10.827L3.615,-10.827C3.615,-11.325 3.589,-11.741 3.536,-12.074C3.484,-12.409 3.359,-12.681 3.163,-12.89C2.954,-13.152 2.61,-13.322 2.131,-13.401C1.653,-13.479 0.942,-13.518 0,-13.518L-0.413,-13.518C-1.134,-13.518 -1.717,-13.483 -2.162,-13.411C-2.607,-13.339 -2.987,-13.178 -3.302,-12.929C-3.485,-12.785 -3.613,-12.55 -3.685,-12.222C-3.757,-11.895 -3.793,-11.495 -3.793,-11.023C-3.793,-10.328 -3.722,-9.818 -3.577,-9.49C-3.433,-9.163 -3.22,-8.924 -2.938,-8.774C-2.656,-8.623 -2.283,-8.518 -1.818,-8.458C-1.353,-8.4 -0.865,-8.37 -0.354,-8.37L0.549,-8.37C1.52,-8.37 2.299,-8.325 2.888,-8.233C3.478,-8.141 4.002,-7.935 4.46,-7.614C4.919,-7.293 5.239,-6.76 5.423,-6.013C5.527,-5.567 5.58,-4.997 5.58,-4.303C5.58,-3.438 5.479,-2.698 5.275,-2.082C5.072,-1.467 4.748,-1.001 4.303,-0.687C3.831,-0.399 3.124,-0.203 2.181,-0.098C1.552,-0.032 0.727,0 -0.295,0L-0.904,0C-1.73,0 -2.358,-0.038 -2.791,-0.118C-3.485,-0.248 -4.039,-0.477 -4.451,-0.805C-4.864,-1.133 -5.152,-1.558 -5.316,-2.082C-5.479,-2.607 -5.562,-3.189 -5.562,-3.831C-5.535,-3.988 -5.517,-4.156 -5.503,-4.332C-5.49,-4.509 -5.483,-4.637 -5.483,-4.716L-3.832,-4.716L-3.872,-4.379C-3.872,-3.769 -3.832,-3.254 -3.754,-2.835C-3.676,-2.419 -3.512,-2.102 -3.263,-1.892C-2.936,-1.601 -2.51,-1.454 -1.985,-1.454L0.746,-1.454C1.322,-1.454 1.807,-1.49 2.2,-1.561C2.593,-1.634 2.928,-1.762 3.202,-1.951C3.478,-2.138 3.661,-2.423 3.753,-2.8C3.844,-3.176 3.89,-3.644 3.89,-4.205L3.89,-4.437C3.89,-4.853 3.857,-5.22 3.791,-5.531C3.727,-5.842 3.589,-6.098 3.379,-6.291C3.17,-6.514 2.842,-6.664 2.396,-6.749C1.951,-6.835 1.421,-6.877 0.805,-6.877C-0.466,-6.877 -1.39,-6.91 -1.966,-6.975C-3.065,-7.093 -3.892,-7.355 -4.441,-7.761C-4.821,-8.049 -5.09,-8.43 -5.248,-8.901C-5.404,-9.372 -5.483,-9.949 -5.483,-10.63C-5.483,-11.469 -5.395,-12.176 -5.218,-12.753C-5.041,-13.329 -4.772,-13.767 -4.412,-14.069C-4.052,-14.37 -3.57,-14.597 -2.968,-14.747C-2.365,-14.897 -1.376,-14.973 0,-14.973M-21.271,-0.118L-21.271,-14.855L-11.8,-14.855L-11.8,-13.401L-19.621,-13.401L-19.621,-8.37L-12.135,-8.37L-12.135,-6.995L-19.621,-6.995L-19.621,-1.572L-11.8,-1.572L-11.8,-0.118L-21.271,-0.118ZM-36.491,-14.855L-34.801,-14.855L-34.801,-1.572L-27.314,-1.572L-27.314,-0.118L-36.491,-0.118L-36.491,-14.855ZM-50.825,-14.855L-48.486,-14.855L-42.945,-0.118L-44.668,-0.12L-45.877,-3.223L-53.321,-3.223L-54.471,-0.12L-56.19,-0.118L-50.825,-14.855ZM-52.85,-4.618L-46.339,-4.618L-49.627,-13.476L-52.85,-4.618ZM-67.381,-14.973C-66.28,-14.973 -65.396,-14.914 -64.728,-14.796C-64.06,-14.678 -63.542,-14.472 -63.175,-14.178C-62.809,-13.883 -62.54,-13.483 -62.37,-12.978C-62.199,-12.474 -62.115,-11.895 -62.115,-11.239L-62.115,-10.827L-63.765,-10.827C-63.765,-11.325 -63.791,-11.741 -63.844,-12.074C-63.896,-12.409 -64.021,-12.681 -64.217,-12.89C-64.427,-13.152 -64.771,-13.322 -65.249,-13.401C-65.728,-13.479 -66.438,-13.518 -67.381,-13.518L-67.793,-13.518C-68.514,-13.518 -69.097,-13.483 -69.542,-13.411C-69.987,-13.339 -70.368,-13.178 -70.683,-12.929C-70.865,-12.785 -70.993,-12.55 -71.065,-12.222C-71.137,-11.895 -71.174,-11.495 -71.174,-11.023C-71.174,-10.328 -71.102,-9.818 -70.957,-9.49C-70.813,-9.163 -70.601,-8.924 -70.319,-8.774C-70.037,-8.623 -69.663,-8.518 -69.198,-8.458C-68.733,-8.4 -68.245,-8.37 -67.734,-8.37L-66.831,-8.37C-65.861,-8.37 -65.082,-8.325 -64.492,-8.233C-63.902,-8.141 -63.378,-7.935 -62.92,-7.614C-62.461,-7.293 -62.141,-6.76 -61.957,-6.013C-61.853,-5.567 -61.8,-4.997 -61.8,-4.303C-61.8,-3.438 -61.901,-2.698 -62.104,-2.082C-62.308,-1.467 -62.632,-1.001 -63.077,-0.687C-63.549,-0.399 -64.256,-0.203 -65.199,-0.098C-65.828,-0.032 -66.654,0 -67.676,0L-68.284,0C-69.11,0 -69.738,-0.038 -70.171,-0.118C-70.865,-0.248 -71.419,-0.477 -71.831,-0.805C-72.244,-1.133 -72.532,-1.558 -72.696,-2.082C-72.859,-2.607 -72.941,-3.189 -72.941,-3.831C-72.916,-3.988 -72.896,-4.156 -72.883,-4.332C-72.87,-4.509 -72.863,-4.637 -72.863,-4.716L-71.212,-4.716L-71.252,-4.379C-71.252,-3.769 -71.212,-3.254 -71.134,-2.835C-71.056,-2.419 -70.892,-2.102 -70.643,-1.892C-70.315,-1.601 -69.89,-1.454 -69.365,-1.454L-66.635,-1.454C-66.058,-1.454 -65.573,-1.49 -65.181,-1.561C-64.787,-1.634 -64.452,-1.762 -64.178,-1.951C-63.902,-2.138 -63.719,-2.423 -63.628,-2.8C-63.536,-3.176 -63.49,-3.644 -63.49,-4.205L-63.49,-4.437C-63.49,-4.853 -63.522,-5.22 -63.589,-5.531C-63.654,-5.842 -63.791,-6.098 -64.001,-6.291C-64.21,-6.514 -64.538,-6.664 -64.983,-6.749C-65.429,-6.835 -65.959,-6.877 -66.575,-6.877C-67.846,-6.877 -68.77,-6.91 -69.346,-6.975C-70.446,-7.093 -71.271,-7.355 -71.821,-7.761C-72.202,-8.049 -72.471,-8.43 -72.628,-8.901C-72.784,-9.372 -72.863,-9.949 -72.863,-10.63C-72.863,-11.469 -72.775,-12.176 -72.599,-12.753C-72.421,-13.329 -72.152,-13.767 -71.793,-14.069C-71.432,-14.37 -70.95,-14.597 -70.348,-14.747C-69.745,-14.897 -68.756,-14.973 -67.381,-14.973" style="fill:rgb(16,22,62);fill-rule:nonzero;"/>
            </g>
        </g>
    </g>
</svg>
