<?xml version="1.0" encoding="utf-8"?>
<!-- Generator: Adobe Illustrator 23.1.0, SVG Export Plug-In . SVG Version: 6.00 Build 0)  -->
<svg version="1.1" id="Layer_1" xmlns="http://www.w3.org/2000/svg" xmlns:xlink="http://www.w3.org/1999/xlink" x="0px" y="0px"
	 viewBox="0 0 50 50" style="enable-background:new 0 0 50 50;" xml:space="preserve">
<style type="text/css">
	.st0{fill:#414141;}
	.st1{fill:none;stroke:#414141;stroke-width:2;stroke-linecap:round;stroke-miterlimit:10;}
</style>
<circle class="st0" cx="2.1" cy="22.6" r="2"/>
<circle class="st0" cx="15.3" cy="18.8" r="2"/>
<circle class="st0" cx="25.3" cy="14" r="2"/>
<circle class="st0" cx="35.3" cy="18" r="2"/>
<circle class="st0" cx="48.1" cy="9.9" r="2"/>
<circle class="st0" cx="2" cy="31.3" r="2"/>
<circle class="st0" cx="15" cy="32.2" r="2"/>
<circle class="st0" cx="24.9" cy="28" r="2"/>
<circle class="st0" cx="35" cy="33.3" r="2"/>
<circle class="st0" cx="48" cy="26.4" r="2"/>
<polyline class="st1" points="2.3,22.6 15.3,18.8 25.3,13.8 35.3,17.6 48.3,10 "/>
<polyline class="st1" points="2,31.5 15,32.7 25,27.7 35,34 48,26.4 "/>
<circle class="st0" cx="2" cy="41.8" r="2"/>
<circle class="st0" cx="15" cy="42.4" r="2"/>
<circle class="st0" cx="24.8" cy="40" r="2"/>
<circle class="st0" cx="35" cy="42.7" r="2"/>
<circle class="st0" cx="48.2" cy="39.8" r="2"/>
<polyline class="st1" points="2,41.8 15,42.2 25,40.4 35,42.7 48,40 "/>
</svg>
