<svg xmlns="http://www.w3.org/2000/svg" width="95.497" height="94" viewBox="0 0 95.497 94"><defs><style>.a{fill:none;stroke:#e31836;stroke-linecap:round;stroke-linejoin:round;stroke-miterlimit:22.926;stroke-width:4px;}</style></defs><g transform="translate(2.707 2)"><path class="a" d="M1177.8,1305.388l33.555-62.688,24.971,48.9m-3.642-9.624,11.705-9.364,23.411,32.775m-51.243-7.543a1.949,1.949,0,0,1-.26-1.3h0a3.556,3.556,0,0,1,3.642-3.642h19.249a3.556,3.556,0,0,1,3.641,3.642h0c0,.52-.26,1.041-.26,1.561h8.323c2.341,0,4.682,1.821,4.682,4.161h0c0,2.341-2.6,4.162-4.682,4.162h-5.2a4.06,4.06,0,0,1,2.081,3.382h0a3.486,3.486,0,0,1-2.081,3.382h-48.642c-9.1-.26-7.023-8.844,0-8.844h5.722c0-.52-.26-.781-.26-1.3h0c0-2.6,2.081-5.462,4.682-5.462h9.364Zm-25.491-17.167,15.347-14.827,4.942,12.746,5.2-10.664L1229.3,1278.6" transform="translate(-1177.8 -1223.192)"/><path class="a" d="M1190.7,1254.969V1235.46m0,10.665h30.694l-10.665-5.462,10.665-5.462H1190.96" transform="translate(-1157.145 -1235.2)"/></g></svg>